<svg xmlns="http://www.w3.org/2000/svg" viewBox="0 0 130 150" fill="none" stroke="#3C3C3C" stroke-width="1.1" stroke-linecap="round" stroke-linejoin="round">
  <!-- Main branch -->
  <path d="M 15 120 C 30 105, 55 75, 75 55 C 85 45, 95 35, 105 25"/>
  <!-- Sub-branch -->
  <path d="M 75 55 C 80 50, 88 52, 95 58"/>
  <!-- Top leaf cluster -->
  <path d="M 105 25 C 95 12, 108 2, 118 10"/>
  <path d="M 105 25 C 110 12, 122 8, 118 10"/>
  <line x1="105" y1="25" x2="118" y2="10" stroke-width="0.6"/>
  <!-- Second leaf (top-right) -->
  <path d="M 98 32 C 108 22, 120 25, 115 35"/>
  <path d="M 98 32 C 105 28, 118 30, 115 35"/>
  <line x1="98" y1="32" x2="115" y2="35" stroke-width="0.6"/>
  <!-- Middle leaf (left side) -->
  <path d="M 60 70 C 48 58, 52 42, 64 48"/>
  <path d="M 60 70 C 52 60, 56 46, 64 48"/>
  <line x1="60" y1="70" x2="64" y2="48" stroke-width="0.6"/>
  <!-- Lower leaf -->
  <path d="M 40 95 C 50 82, 65 80, 60 92"/>
  <path d="M 40 95 C 48 86, 62 86, 60 92"/>
  <line x1="40" y1="95" x2="60" y2="92" stroke-width="0.6"/>
  <!-- Fruit (citrus) -->
  <circle cx="92" cy="58" r="14" stroke-width="1.2"/>
  <path d="M 92 44 C 88 40, 90 36, 94 38 C 96 39, 95 42, 92 44" stroke-width="0.8"/>
  <!-- Leaf vein details -->
  <path d="M 50 82 L 54 78" stroke-width="0.4"/>
  <path d="M 68 62 L 72 58" stroke-width="0.4"/>
</svg>
