<svg xmlns="http://www.w3.org/2000/svg" viewBox="0 0 90 170" fill="none" stroke="#3C3C3C" stroke-width="1.1" stroke-linecap="round" stroke-linejoin="round">
  <!-- Stem -->
  <path d="M 48 170 C 46 145, 40 125, 38 105 C 36 85, 38 70, 40 55"/>
  <!-- Thorns -->
  <path d="M 40 115 C 36 112, 32 110, 30 108"/>
  <path d="M 38 95 C 42 92, 46 90, 48 88"/>
  <!-- Rose petals (outer) -->
  <path d="M 25 50 C 18 38, 20 20, 35 15 C 40 13, 48 14, 52 18"/>
  <path d="M 52 18 C 62 22, 65 35, 58 48"/>
  <path d="M 58 48 C 53 56, 40 58, 30 54"/>
  <path d="M 30 54 C 22 50, 20 45, 25 50"/>
  <!-- Rose petals (inner) -->
  <path d="M 32 45 C 28 35, 32 24, 40 20"/>
  <path d="M 40 20 C 50 18, 56 28, 52 40"/>
  <path d="M 52 40 C 48 48, 38 50, 32 45"/>
  <!-- Rose center spiral -->
  <path d="M 38 38 C 36 32, 40 28, 44 30 C 48 32, 48 38, 44 40 C 40 42, 37 40, 38 38"/>
  <!-- Leaf -->
  <path d="M 38 88 C 50 78, 62 74, 68 68" fill="none"/>
  <path d="M 38 88 C 52 82, 66 78, 68 68" fill="none"/>
  <path d="M 38 88 L 68 68" stroke-width="0.7"/>
  <!-- Small leaf veins -->
  <path d="M 48 82 L 52 78" stroke-width="0.5"/>
  <path d="M 55 76 L 58 72" stroke-width="0.5"/>
</svg>
